HIERARCHY
ROOT Hips
{
  OFFSET 5.72205e-005 65.662 3.42586
  CHANNELS 6 Xposition Yposition Zposition Zrotation Xrotation Yrotation
  JOINT Chest
  {
    OFFSET 0 8.7983 -4.7612
    CHANNELS 3 Zrotation Xrotation Yrotation
    JOINT Chest2
    {
      OFFSET 0 8.0291 0.4195
      CHANNELS 3 Zrotation Xrotation Yrotation
      JOINT Chest3
      {
        OFFSET 0 9.9351 -2.2114
        CHANNELS 3 Zrotation Xrotation Yrotation
        JOINT Neck
        {
          OFFSET 0 22.3885 -0.4656
          CHANNELS 3 Zrotation Xrotation Yrotation
          JOINT Head
          {
            OFFSET -0.0001 12.643 3.4389
            CHANNELS 3 Zrotation Xrotation Yrotation
            End Site
            {
              OFFSET 0.0001 17.6655 0.5274
            }
          }
        }
        JOINT LeftCollar
        {
          OFFSET 2.2603 21.606 7.4023
          CHANNELS 3 Zrotation Xrotation Yrotation
          JOINT LeftShoulder
          {
            OFFSET 13.5163 -1.1332 -5.0146
            CHANNELS 3 Zrotation Xrotation Yrotation
            JOINT LeftElbow
            {
              OFFSET -0.0995 -28.05 -0.2431
              CHANNELS 3 Zrotation Xrotation Yrotation
              JOINT LeftWrist
              {
                OFFSET 0.0679 -23.3996 -0.1402
                CHANNELS 3 Zrotation Xrotation Yrotation
                JOINT LeftFinger1
                {
                  OFFSET 0.7932 -9.069 2.5189
                  CHANNELS 3 Zrotation Xrotation Yrotation
                  JOINT LeftFinger11
                  {
                    OFFSET -0.8272 -3.3923 0.5977
                    CHANNELS 3 Zrotation Xrotation Yrotation
                    JOINT LeftFinger12
                    {
                      OFFSET -0.5649 -2.3158 0.4082
                      CHANNELS 3 Zrotation Xrotation Yrotation
                      End Site
                      {
                        OFFSET -0.4919 -1.6479 0.2673
                      }
                    }
                  }
                }
                JOINT LeftFinger2
                {
                  OFFSET 0.9159 -9.2044 0.2193
                  CHANNELS 3 Zrotation Xrotation Yrotation
                  JOINT LeftFinger21
                  {
                    OFFSET 0.0117 -4.1944 -0.0248
                    CHANNELS 3 Zrotation Xrotation Yrotation
                    JOINT LeftFinger22
                    {
                      OFFSET 0.0071 -2.3249 -0.0142
                      CHANNELS 3 Zrotation Xrotation Yrotation
                      End Site
                      {
                        OFFSET -0.1475 -2.0882 0.0028
                      }
                    }
                  }
                }
                JOINT LeftFinger3
                {
                  OFFSET 0.6113 -8.7231 -2.0637
                  CHANNELS 3 Zrotation Xrotation Yrotation
                  JOINT LeftFinger31
                  {
                    OFFSET -0.1927 -3.8059 -0.2383
                    CHANNELS 3 Zrotation Xrotation Yrotation
                    JOINT LeftFinger32
                    {
                      OFFSET -0.1091 -2.1688 -0.1362
                      CHANNELS 3 Zrotation Xrotation Yrotation
                      End Site
                      {
                        OFFSET -0.2358 -1.9176 -0.0906
                      }
                    }
                  }
                }
                JOINT LeftFinger4
                {
                  OFFSET -0.6151 -8.0947 -3.5641
                  CHANNELS 3 Zrotation Xrotation Yrotation
                  JOINT LeftFinger41
                  {
                    OFFSET -0.4882 -2.341 -0.6462
                    CHANNELS 3 Zrotation Xrotation Yrotation
                    JOINT LeftFinger42
                    {
                      OFFSET -0.3575 -1.7167 -0.4742
                      CHANNELS 3 Zrotation Xrotation Yrotation
                      End Site
                      {
                        OFFSET -0.4187 -1.5237 -0.3496
                      }
                    }
                  }
                }
                JOINT LeftFinger0
                {
                  OFFSET -1.42 -1.8761 1.4223
                  CHANNELS 3 Zrotation Xrotation Yrotation
                  JOINT LeftFinger01
                  {
                    OFFSET -1.1471 -3.4929 2.6334
                    CHANNELS 3 Zrotation Xrotation Yrotation
                    JOINT LeftFinger02
                    {
                      OFFSET -0.823 -2.3 1.6571
                      CHANNELS 3 Zrotation Xrotation Yrotation
                      End Site
                      {
                        OFFSET -0.5822 -1.6914 1.1582
                      }
                    }
                  }
                }
              }
            }
          }
        }
        JOINT RightCollar
        {
          OFFSET -2.2603 21.606 7.4023
          CHANNELS 3 Zrotation Xrotation Yrotation
          JOINT RightShoulder
          {
            OFFSET -13.5187 -1.1334 -5.0155
            CHANNELS 3 Zrotation Xrotation Yrotation
            JOINT RightElbow
            {
              OFFSET 0.0994 -28.0499 -0.2431
              CHANNELS 3 Zrotation Xrotation Yrotation
              JOINT RightWrist
              {
                OFFSET -0.0679 -23.3996 -0.1402
                CHANNELS 3 Zrotation Xrotation Yrotation
                JOINT RightFinger1
                {
                  OFFSET -0.7932 -9.0691 2.5189
                  CHANNELS 3 Zrotation Xrotation Yrotation
                  JOINT RightFinger11
                  {
                    OFFSET 0.8272 -3.3923 0.5977
                    CHANNELS 3 Zrotation Xrotation Yrotation
                    JOINT RightFinger12
                    {
                      OFFSET 0.565 -2.3158 0.4082
                      CHANNELS 3 Zrotation Xrotation Yrotation
                      End Site
                      {
                        OFFSET 0.4919 -1.6479 0.2673
                      }
                    }
                  }
                }
                JOINT RightFinger2
                {
                  OFFSET -0.916 -9.2044 0.2193
                  CHANNELS 3 Zrotation Xrotation Yrotation
                  JOINT RightFinger21
                  {
                    OFFSET -0.0117 -4.1944 -0.0248
                    CHANNELS 3 Zrotation Xrotation Yrotation
                    JOINT RightFinger22
                    {
                      OFFSET -0.0071 -2.3249 -0.0142
                      CHANNELS 3 Zrotation Xrotation Yrotation
                      End Site
                      {
                        OFFSET 0.1475 -2.0882 0.0028
                      }
                    }
                  }
                }
                JOINT RightFinger3
                {
                  OFFSET -0.6113 -8.7231 -2.0637
                  CHANNELS 3 Zrotation Xrotation Yrotation
                  JOINT RightFinger31
                  {
                    OFFSET 0.1927 -3.8059 -0.2383
                    CHANNELS 3 Zrotation Xrotation Yrotation
                    JOINT RightFinger32
                    {
                      OFFSET 0.1091 -2.1688 -0.1362
                      CHANNELS 3 Zrotation Xrotation Yrotation
                      End Site
                      {
                        OFFSET 0.2358 -1.9176 -0.0906
                      }
                    }
                  }
                }
                JOINT RightFinger4
                {
                  OFFSET 0.6151 -8.0947 -3.564
                  CHANNELS 3 Zrotation Xrotation Yrotation
                  JOINT RightFinger41
                  {
                    OFFSET 0.4882 -2.341 -0.6462
                    CHANNELS 3 Zrotation Xrotation Yrotation
                    JOINT RightFinger42
                    {
                      OFFSET 0.3574 -1.7166 -0.4742
                      CHANNELS 3 Zrotation Xrotation Yrotation
                      End Site
                      {
                        OFFSET 0.4187 -1.5237 -0.3496
                      }
                    }
                  }
                }
                JOINT RightFinger0
                {
                  OFFSET 1.4199 -1.8761 1.4221
                  CHANNELS 3 Zrotation Xrotation Yrotation
                  JOINT RightFinger01
                  {
                    OFFSET 1.1472 -3.4929 2.6336
                    CHANNELS 3 Zrotation Xrotation Yrotation
                    JOINT RightFinger02
                    {
                      OFFSET 0.8229 -2.3 1.6571
                      CHANNELS 3 Zrotation Xrotation Yrotation
                      End Site
                      {
                        OFFSET 0.5822 -1.6914 1.1582
                      }
                    }
                  }
                }
              }
            }
          }
        }
      }
    }
  }
  JOINT RightHip
  {
    OFFSET -9.412 3.9771 -0.7758
    CHANNELS 3 Zrotation Xrotation Yrotation
    JOINT RightKnee
    {
      OFFSET -0.7531 -40.938 0
      CHANNELS 3 Zrotation Xrotation Yrotation
      JOINT RightAnkle
      {
        OFFSET 0 -40.1986 0
        CHANNELS 3 Zrotation Xrotation Yrotation
        JOINT RightToe
        {
          OFFSET 0 -4.4182 9.239
          CHANNELS 3 Zrotation Xrotation Yrotation
          End Site
          {
            OFFSET 0 0 6.1981
          }
        }
      }
    }
  }
  JOINT LeftHip
  {
    OFFSET 9.4119 3.9773 -0.7758
    CHANNELS 3 Zrotation Xrotation Yrotation
    JOINT LeftKnee
    {
      OFFSET 0.7532 -40.9383 0
      CHANNELS 3 Zrotation Xrotation Yrotation
      JOINT LeftAnkle
      {
        OFFSET 0 -40.1986 0
        CHANNELS 3 Zrotation Xrotation Yrotation
        JOINT LeftToe
        {
          OFFSET 0 -4.4182 9.239
          CHANNELS 3 Zrotation Xrotation Yrotation
          End Site
          {
            OFFSET 0 0 6.1981
          }
        }
      }
    }
  }
}
MOTION
Frames:	4
Frame Time:	0.0333333
5.72205e-005 65.662 3.42586 0 0 -0 0 0 -0 0 0 -0 0 0 -0 0 0 -0 0 0 -0 0 0 -12.5014 88.1196 14.2451 10.6914 -0.00160068 -0.00239207 0.000740045 -8.4365e-005 7.00714e-005 -9.52055e-007 9.93923e-017 -1.98785e-016 -1.59028e-015 9.93923e-017 -5.96354e-016 -1.59028e-015 -9.93923e-017 -5.96354e-016 -1.59028e-015 9.93923e-017 -1.98785e-016 -1.59028e-015 -0.0128176 0.00232552 8.52707e-005 9.93923e-017 5.96354e-016 -0 9.93923e-017 -1.98785e-016 -1.59028e-015 -0.0160551 0.00299681 0.000857156 -2.48481e-016 0 3.18055e-015 9.93923e-017 -1.98785e-016 -1.59028e-015 -0.0125865 0.0031206 0.00282719 0 1.98785e-016 -0 9.93923e-017 -1.98785e-016 -1.59028e-015 9.93923e-017 -5.96354e-016 -1.59028e-015 -9.93923e-017 -5.96354e-016 -1.59028e-015 -0.865644 0.16582 7.03859 -88.0329 10.2057 -10.5567 0.0015593 -0.00248883 -0.000788628 7.87605e-005 4.10553e-005 1.24965e-005 -3.97569e-016 -7.95139e-016 3.18055e-015 -1.98785e-016 -3.97569e-016 3.18055e-015 -1.98785e-016 0 3.18055e-015 -3.97569e-016 -7.95139e-016 3.18055e-015 0.0129473 0.00231697 -8.70038e-005 9.93923e-017 -7.95139e-016 1.59028e-015 -3.97569e-016 -7.95139e-016 3.18055e-015 0.0163314 0.00303369 -0.000872333 3.97569e-016 7.95139e-016 -3.18055e-015 -3.97569e-016 -7.95139e-016 3.18055e-015 0.0145763 0.00367772 -0.00326275 9.93923e-017 -3.97569e-016 -0 -3.97569e-016 -7.95139e-016 3.18055e-015 -1.98785e-016 -3.97569e-016 3.18055e-015 -1.98785e-016 0 3.18055e-015 3.42482 1.32465 -0.0626183 0.000117508 0.717283 0.000978199 -3.4257 -2.04197 -0.0604716 6.47761e-025 0 -0 -3.42483 1.34017 0.0627307 -0.000193936 0.682302 -0.0013703 3.42574 -2.02253 0.0595886 -8.45714e-024 0 -7.40531e-025 
19.8717 0.728439 9.64649 -90.4091 -89.739 89.3299 2.66802e-008 1.27234e-014 1.42168e-012 -4.96962e-017 -3.88251e-019 2.93008e-018 -4.96962e-017 -3.88251e-019 5.26202e-017 1.9987 -0.0821112 0.00286623 19.9982 -2.44048e-005 3.50459e-006 -25.6604 -4.44002 -3.53237 60.8047 -16.587 45.8027 -156.58 -59.3341 -146.074 -9.83537 1.80263 -0.150664 2.53395e-006 -9.19065e-006 -5.50112e-006 6.36111e-015 -3.18055e-015 3.18055e-015 6.36111e-015 0 -1.59028e-015 2.53395e-006 -9.19065e-006 -5.50112e-006 -0.0128033 0.00232468 8.43062e-005 2.44877e-022 2.94087e-006 -4.77083e-015 2.53395e-006 -9.19065e-006 -5.50112e-006 -0.0160473 0.00299769 0.00084683 -1.18748e-006 -7.02776e-009 -5.78688e-006 2.53395e-006 -9.19065e-006 -5.50112e-006 -0.0126214 0.00312105 0.00283527 -6.36111e-015 -3.18055e-015 6.36111e-015 2.53395e-006 -9.19065e-006 -5.50112e-006 6.36111e-015 -3.18055e-015 3.18055e-015 6.36111e-015 0 -1.59028e-015 -0.865642 0.0836609 7.03735 -67.3308 -46.8652 -70.4862 160.926 -57.024 149.388 0.981256 0.176423 0.0537815 -3.18055e-015 -1.59028e-015 5.56597e-015 -6.36111e-015 -1.59028e-015 -0 -6.36111e-015 0 7.95139e-016 -3.18055e-015 -1.59028e-015 5.56597e-015 0.0129375 0.00231154 -7.97071e-005 -3.18055e-015 0 -0 -3.18055e-015 -1.59028e-015 5.56597e-015 0.0163593 0.00304143 -0.000878986 3.18055e-015 -3.18055e-015 -1.59028e-015 -3.18055e-015 -1.59028e-015 5.56597e-015 0.0146189 0.00368458 -0.00325995 -3.18055e-015 3.18055e-015 5.56597e-015 -3.18055e-015 -1.59028e-015 5.56597e-015 -6.36111e-015 -1.59028e-015 -0 -6.36111e-015 0 7.95139e-016 -25.3718 -32.5763 -15.9825 0.15465 56.3299 -1.5226 -2.66933 28.9179 -0.2421 -6.57147e-007 -2.78776e-007 5.03945e-007 24.7862 -30.51 13.6698 -0.364837 55.5982 2.07839 3.07774 51.166 -0.287631 -1.59028e-015 3.18055e-015 3.18055e-015 
19.8717 0.728439 9.64649 -90.4091 -89.739 89.3299 2.66802e-008 1.27234e-014 1.42168e-012 -4.96962e-017 -3.88251e-019 2.93008e-018 -4.96962e-017 -3.88251e-019 5.26202e-017 1.9987 -0.0821112 0.00286623 19.1806 -1.86348e-006 4.60391e-006 -25.6604 -4.44002 -3.53237 61.2722 -16.6545 46.0478 -156.58 -59.3341 -146.074 -9.83536 1.80263 -0.150672 6.36111e-015 3.18055e-015 -0 6.36111e-015 3.18055e-015 -0 6.36111e-015 1.27222e-014 -1.59028e-015 6.36111e-015 3.18055e-015 -0 -0.0128254 0.00233298 8.97237e-005 1.85797e-006 -1.44969e-006 2.53894e-006 6.36111e-015 3.18055e-015 -0 -0.0160611 0.00300382 0.000860709 -3.57279e-006 -1.97551e-007 -5.29453e-006 6.36111e-015 3.18055e-015 -0 -0.0126374 0.00314074 0.00284303 3.21697e-006 -2.41742e-006 3.29422e-006 6.36111e-015 3.18055e-015 -0 6.36111e-015 3.18055e-015 -0 6.36111e-015 1.27222e-014 -1.59028e-015 -0.865642 0.0836609 7.03735 -66.3749 -46.5774 -69.4111 160.925 -57.0242 149.388 0.981262 0.176446 0.0537405 -3.31043e-032 -1.59028e-015 -1.19271e-015 1.98626e-031 4.77083e-015 -2.38542e-015 3.18055e-015 4.77083e-015 -3.97569e-016 -3.31043e-032 -1.59028e-015 -1.19271e-015 0.0130064 0.0023312 -8.65123e-005 -6.27641e-006 -1.18236e-005 -3.1812e-006 -3.31043e-032 -1.59028e-015 -1.19271e-015 0.0163041 0.0030197 -0.000871716 -8.82781e-032 -1.59028e-015 -3.18055e-015 -3.31043e-032 -1.59028e-015 -1.19271e-015 0.0145679 0.00367615 -0.00326255 6.36111e-015 7.95139e-015 1.86858e-014 -3.31043e-032 -1.59028e-015 -1.19271e-015 1.98626e-031 4.77083e-015 -2.38542e-015 3.18055e-015 4.77083e-015 -3.97569e-016 -25.3718 -32.5763 -15.9825 0.15465 56.3299 -1.5226 -2.66933 28.9179 -0.2421 -6.57147e-007 -2.78776e-007 5.03945e-007 24.7862 -30.51 13.6698 -0.364837 55.5982 2.07839 3.07774 51.166 -0.287631 -1.59028e-015 3.18055e-015 3.18055e-015 
19.8717 0.728439 9.64649 -90.4091 -89.739 89.3299 2.66802e-008 1.27234e-014 1.42168e-012 -4.96962e-017 -3.88251e-019 2.93008e-018 -4.96962e-017 -3.88251e-019 5.26202e-017 1.9987 -0.0821112 0.00286623 18.3611 -8.8999e-006 5.47647e-006 -25.6604 -4.44002 -3.53237 61.7405 -16.7201 46.2937 -156.58 -59.3341 -146.074 -9.83539 1.80265 -0.150666 -3.08432e-006 4.01237e-006 -3.47957e-006 3.18055e-015 -6.36111e-015 -3.18055e-015 -8.82781e-032 3.18055e-015 1.59028e-015 -3.08432e-006 4.01237e-006 -3.47957e-006 -0.0128064 0.00232559 9.73175e-005 -3.23205e-006 2.40351e-006 -3.29172e-006 -3.08432e-006 4.01237e-006 -3.47957e-006 -0.0160212 0.00299472 0.000866158 9.54166e-015 9.54166e-015 -1.59028e-015 -3.08432e-006 4.01237e-006 -3.47957e-006 -0.0126058 0.00312318 0.00283051 -6.36111e-015 -1.27222e-014 -3.18055e-015 -3.08432e-006 4.01237e-006 -3.47957e-006 3.18055e-015 -6.36111e-015 -3.18055e-015 -8.82781e-032 3.18055e-015 1.59028e-015 -0.865642 0.0836609 7.03735 -65.4306 -46.2767 -68.3472 160.925 -57.0242 149.388 0.981237 0.176462 0.0537713 3.18055e-015 -1.59028e-015 4.37326e-015 -3.18055e-015 -1.59028e-015 3.97569e-016 -6.62086e-032 -1.59028e-015 -2.38542e-015 3.18055e-015 -1.59028e-015 4.37326e-015 0.0129657 0.00232755 -8.90642e-005 -4.41391e-032 3.18055e-015 7.95139e-016 3.18055e-015 -1.59028e-015 4.37326e-015 0.0163714 0.00303513 -0.000871573 9.93129e-032 -1.59028e-015 3.57812e-015 3.18055e-015 -1.59028e-015 4.37326e-015 0.0145372 0.00367478 -0.00325826 -6.36111e-015 3.18055e-015 -1.19271e-015 3.18055e-015 -1.59028e-015 4.37326e-015 -3.18055e-015 -1.59028e-015 3.97569e-016 -6.62086e-032 -1.59028e-015 -2.38542e-015 -25.3717 -32.5763 -15.9825 0.154666 56.3299 -1.52262 -2.66933 28.9179 -0.242115 -5.18626e-025 4.67137e-009 6.36111e-015 24.7862 -30.51 13.6698 -0.364874 55.5982 2.0784 3.07774 51.166 -0.28763 -7.95139e-016 0 -6.36111e-015 
